Coordinates
version=1
nRows=16
nColumns=63
inDegrees=yes

Units are S.I. units (second, meters, Newtons, ...)
If the header above contains a line with 'inDegrees', this indicates whether rotational values are in degrees (yes) or radians (no).

endheader
time	pelvis_tilt	pelvis_list	pelvis_rotation	pelvis_tx	pelvis_ty	pelvis_tz	hip_flexion_r	hip_adduction_r	hip_rotation_r	knee_angle_r	knee_angle_r_beta	ankle_angle_r	subtalar_angle_r	mtp_angle_r	hip_flexion_l	hip_adduction_l	hip_rotation_l	knee_angle_l	knee_angle_l_beta	ankle_angle_l	subtalar_angle_l	mtp_angle_l	L5_S1_Flex_Ext	L5_S1_Lat_Bending	L5_S1_axial_rotation	L4_L5_Flex_Ext	L4_L5_Lat_Bending	L4_L5_axial_rotation	L3_L4_Flex_Ext	L3_L4_Lat_Bending	L3_L4_axial_rotation	L2_L3_Flex_Ext	L2_L3_Lat_Bending	L2_L3_axial_rotation	L1_L2_Flex_Ext	L1_L2_Lat_Bending	L1_L2_axial_rotation	L1_T12_Flex_Ext	L1_T12_Lat_Bending	L1_T12_axial_rotation	Abs_r3	Abs_r2	Abs_r1	Abs_t1	Abs_t2	neck_flexion	neck_bending	neck_rotation	arm_flex_r	arm_add_r	arm_rot_r	elbow_flex_r	pro_sup_r	wrist_flex_r	wrist_dev_r	arm_flex_l	arm_add_l	arm_rot_l	elbow_flex_l	pro_sup_l	wrist_flex_l	wrist_dev_l
0.000000	1.976199	-13.478612	109.097624	0.188291	0.367409	0.630223	-2.212941	1.322714	-21.412807	4.277514	0.074657	16.496899	8.749000	0.000000	-2.168112	0.663236	-4.997372	0.470115	0.008205	22.021943	7.458671	0.000000	0.370355	0.110803	-0.678108	0.687787	0.147368	-0.720489	0.608456	0.269406	-0.720489	0.423279	0.269406	-0.593344	0.343912	0.225949	-0.550963	0.211621	0.171633	-0.508581	2.645410	1.253422	-3.771432	0.000000	0.000000	27.940523	3.443655	14.027509	3.330399	-4.185906	41.333655	40.490915	3.142820	-17.210888	29.709397	5.825821	-4.719974	40.720011	42.954157	61.093573	4.305065	21.149036
0.016667	1.691195	-13.205828	109.356551	0.186490	0.366475	0.629032	-2.856923	1.257611	-19.622436	3.798077	0.066289	16.709946	6.154919	0.000000	-2.653634	0.870259	-3.702615	0.452030	0.007889	21.655474	5.946443	0.000000	0.363929	0.095358	-0.776041	0.675853	0.126826	-0.824544	0.597899	0.231853	-0.824544	0.415935	0.231853	-0.679036	0.337945	0.194454	-0.630534	0.207949	0.147709	-0.582031	2.599509	1.078707	-4.316109	0.000000	0.000000	27.979640	3.286964	13.680776	5.300989	-4.453492	45.560527	39.401000	9.482766	-12.273127	30.256189	6.083749	-3.947028	39.313500	42.425012	60.782159	3.216761	21.647618
0.033333	1.386106	-12.999413	109.594981	0.185033	0.365634	0.628173	-3.417029	1.119444	-18.320552	3.418371	0.059662	16.994854	4.354126	0.000000	-3.052850	1.112711	-2.729955	0.447525	0.007811	21.381919	4.854108	0.000000	0.358683	0.072078	-0.863098	0.666111	0.095863	-0.917042	0.589281	0.175250	-0.917042	0.409939	0.175250	-0.755211	0.333073	0.146981	-0.701267	0.204952	0.111648	-0.647324	2.562039	0.815356	-4.800294	0.000000	0.000000	28.012457	3.183593	13.218312	6.955094	-4.630467	49.078165	38.440130	14.968144	-8.058939	30.781594	6.308287	-3.369408	37.993779	42.174085	61.242840	2.234047	22.291675
0.050000	1.066464	-12.855079	109.808209	0.183892	0.364873	0.627620	-3.895947	0.917015	-17.454499	3.129818	0.054626	17.339661	3.264000	0.000000	-3.370551	1.385371	-2.046798	0.454593	0.007934	21.192509	4.130699	0.000000	0.354635	0.042254	-0.938727	0.658592	0.056197	-0.997397	0.582629	0.102735	-0.997397	0.405312	0.102735	-0.821386	0.329314	0.086164	-0.762716	0.202638	0.065451	-0.704045	2.533121	0.477981	-5.220917	0.000000	0.000000	28.039729	3.124922	12.661593	8.320057	-4.723875	51.949168	37.592145	19.677422	-4.511485	31.259726	6.504779	-2.965360	36.775381	42.153067	62.344673	1.354772	23.034037
0.066667	0.737802	-12.768538	109.991530	0.183037	0.364179	0.627346	-4.296367	0.659122	-16.971620	2.923842	0.051031	17.732404	2.801922	0.000000	-3.611529	1.683020	-1.620554	0.471225	0.008224	21.078475	3.725248	0.000000	0.351801	0.007178	-1.002375	0.653329	0.009546	-1.065023	0.577973	0.017452	-1.065023	0.402073	0.017452	-0.877078	0.326682	0.014636	-0.814430	0.201019	0.011118	-0.751781	2.512877	0.081194	-5.574908	0.000000	0.000000	28.062212	3.102333	12.032093	9.423221	-4.740759	54.236134	36.840884	23.689066	-1.573928	31.664700	6.678568	-2.713127	35.672833	42.313649	63.956717	0.576785	23.827535
0.083333	0.405650	-12.735504	110.140238	0.182437	0.363539	0.627325	-4.620977	0.354569	-16.819258	2.791865	0.048727	18.161121	2.885270	0.000000	-3.780575	2.000436	-1.418630	0.495414	0.008647	21.031048	3.586788	0.000000	0.350198	-0.031859	-1.053490	0.650353	-0.042372	-1.119333	0.575341	-0.077462	-1.119333	0.400241	-0.077462	-0.921804	0.325194	-0.064967	-0.855961	0.200103	-0.049349	-0.790118	2.501430	-0.360395	-5.859196	0.000000	0.000000	28.080659	3.107204	11.351288	10.291930	-4.688161	56.001661	36.170185	27.081545	0.810571	31.970631	6.834997	-2.590953	34.700667	42.607522	65.948030	-0.102066	24.624998
0.100000	0.075542	-12.751688	110.249629	0.182063	0.362938	0.627530	-4.872465	0.012155	-16.944757	2.725310	0.047566	18.613848	3.431425	0.000000	-3.882479	2.332400	-1.408435	0.525152	0.009166	21.041459	3.664350	0.000000	0.349844	-0.073564	-1.091521	0.649696	-0.097840	-1.159741	0.574759	-0.178864	-1.159741	0.399837	-0.178864	-0.955081	0.324865	-0.150012	-0.886861	0.199901	-0.113951	-0.818641	2.498902	-0.832172	-6.070713	0.000000	0.000000	28.095825	3.130916	10.640655	10.953526	-4.573125	57.308347	35.563889	29.933326	2.698851	32.151631	6.979410	-2.577081	33.873413	42.986379	68.187671	-0.683933	25.379258
0.116667	-0.246990	-12.812803	110.314996	0.181885	0.362363	0.627935	-5.053521	-0.359319	-17.295461	2.715599	0.047396	19.078623	4.357764	0.000000	-3.922032	2.673692	-1.557376	0.558432	0.009746	21.100940	3.906967	0.000000	0.350756	-0.116646	-1.115915	0.651389	-0.155140	-1.185660	0.576257	-0.283614	-1.185660	0.400879	-0.283614	-0.976426	0.325712	-0.237865	-0.906681	0.200422	-0.180685	-0.836937	2.505415	-1.319528	-6.206387	0.000000	0.000000	28.108466	3.164849	9.921668	11.435354	-4.402694	58.218790	35.005833	32.322877	4.147749	32.181816	7.117151	-2.649755	33.205600	43.401910	70.544698	-1.170967	26.043144
0.133333	-0.556415	-12.914564	110.331634	0.181874	0.361801	0.628513	-5.166834	-0.751052	-17.818712	2.754156	0.048069	19.543483	5.581668	0.000000	-3.904027	3.019092	-1.832861	0.593247	0.010354	21.200721	4.263671	0.000000	0.352951	-0.159814	-1.126121	0.655465	-0.212553	-1.196504	0.579863	-0.388572	-1.196504	0.403387	-0.388572	-0.985356	0.327750	-0.325893	-0.914974	0.201676	-0.247552	-0.844591	2.521091	-1.807849	-6.263149	0.000000	0.000000	28.119335	3.200384	9.215803	11.764757	-4.183911	58.795587	34.479858	34.328663	5.214104	32.035300	7.253561	-2.787220	32.711760	43.805806	72.888169	-1.565320	26.569488
0.150000	-0.847200	-13.052680	110.294838	0.182000	0.361239	0.629237	-5.215091	-1.154243	-18.461854	2.832403	0.049435	19.996466	7.020516	0.000000	-3.833253	3.363379	-2.202299	0.627588	0.010953	21.332034	4.683495	0.000000	0.356445	-0.201775	-1.121587	0.661954	-0.268361	-1.191686	0.585604	-0.490597	-1.191686	0.407381	-0.490597	-0.981388	0.330995	-0.411461	-0.911289	0.203673	-0.312550	-0.841190	2.546053	-2.282525	-6.237928	0.000000	0.000000	28.129188	3.228900	8.544535	11.969078	-3.923819	59.101338	33.969801	36.029154	5.954754	31.686196	7.393986	-2.967718	32.406422	44.149760	75.087143	-1.869142	26.911119
0.166667	-1.113813	-13.222867	110.199902	0.182233	0.360663	0.630081	-5.200982	-1.560092	-19.172231	2.941763	0.051343	20.425609	8.591687	0.000000	-3.714501	3.701333	-2.633097	0.659449	0.011510	21.486109	5.115471	0.000000	0.361257	-0.241239	-1.101759	0.670890	-0.320848	-1.170619	0.593509	-0.586548	-1.170619	0.412880	-0.586548	-0.964039	0.335463	-0.491934	-0.895179	0.206422	-0.373679	-0.826319	2.580421	-2.728943	-6.127655	0.000000	0.000000	28.138779	3.241778	7.929342	12.075660	-3.629460	59.198641	33.459503	37.502816	6.426537	31.108620	7.543767	-3.169495	32.304116	44.385462	77.010679	-2.084586	27.020869
0.183333	-1.323756	-13.426196	110.053759	0.182394	0.360034	0.631055	-5.102909	-1.944008	-19.723078	3.050252	0.053237	20.945387	10.112384	0.000000	-3.535227	4.017123	-2.918349	0.685225	0.011959	21.628227	5.275740	0.000000	0.368938	-0.271725	-1.060625	0.685154	-0.361394	-1.126914	0.606128	-0.660672	-1.126914	0.421659	-0.660672	-0.928047	0.342596	-0.554102	-0.861758	0.210811	-0.420902	-0.795469	2.635285	-3.073808	-5.898879	0.000000	0.000000	28.142012	3.205821	7.462219	12.014235	-3.277346	58.451293	33.024068	40.049622	6.645960	30.054893	7.679694	-3.290882	32.339632	44.369887	78.032081	-2.437535	26.506317
0.200000	-1.487680	-13.636437	109.827397	0.182547	0.359349	0.632091	-4.971415	-2.300093	-20.283652	3.178082	0.055468	21.280992	11.511295	0.000000	-3.342342	4.307422	-3.215175	0.692931	0.012094	21.777114	5.351349	0.000000	0.374808	-0.293882	-0.998315	0.696056	-0.390863	-1.060710	0.615773	-0.714544	-1.060710	0.428368	-0.714544	-0.873526	0.348047	-0.599284	-0.811131	0.214165	-0.455223	-0.748736	2.677218	-3.324451	-5.552329	0.000000	0.000000	28.162312	3.049560	7.041216	12.019328	-2.942449	58.162427	32.467496	41.569233	6.711925	28.754636	7.879908	-3.343562	32.847211	44.030386	77.947568	-2.577187	25.625897
0.216667	-1.599377	-13.875581	109.509826	0.182697	0.358556	0.633129	-4.774016	-2.624920	-20.728203	3.326241	0.058054	21.450019	12.648377	0.000000	-3.108554	4.571439	-3.372300	0.691484	0.012069	21.894872	5.113947	0.000000	0.384387	-0.308276	-0.914588	0.713845	-0.410007	-0.971749	0.631510	-0.749542	-0.971749	0.439316	-0.749542	-0.800264	0.356942	-0.628636	-0.743103	0.219639	-0.477519	-0.685941	2.745639	-3.487278	-5.086663	0.000000	0.000000	28.184571	2.782414	6.671647	12.066318	-2.632015	58.080473	31.805653	42.840388	6.858472	27.182345	8.101967	-3.296541	33.660951	43.354492	77.103123	-2.440681	24.354505
0.233333	-1.664467	-14.136907	109.077812	0.182907	0.357656	0.634139	-4.513689	-2.915116	-21.009360	3.479230	0.060724	21.495423	13.528977	0.000000	-2.840467	4.806078	-3.558577	0.680651	0.011880	22.017836	4.781950	0.000000	0.397131	-0.315551	-0.811457	0.737512	-0.419682	-0.862173	0.652446	-0.767230	-0.862173	0.453881	-0.767230	-0.710025	0.368776	-0.643471	-0.659309	0.226921	-0.488788	-0.608592	2.836667	-3.569571	-4.513078	0.000000	0.000000	28.209418	2.487941	6.464065	12.205018	-2.265920	58.428047	30.946551	44.587862	7.408061	25.268149	8.346241	-3.157129	34.738914	42.354954	75.610194	-2.034037	22.681730
0.250000	-1.686588	-14.421727	108.529982	0.183209	0.356664	0.635091	-4.187093	-3.170401	-21.128172	3.622609	0.063226	21.484827	14.233858	0.000000	-2.533760	5.009118	-3.812789	0.662381	0.011561	22.146997	4.409505	0.000000	0.414195	-0.316444	-0.689878	0.769201	-0.420871	-0.732995	0.680481	-0.769403	-0.732995	0.473383	-0.769403	-0.603643	0.384621	-0.645294	-0.560526	0.236671	-0.490173	-0.517409	2.958553	-3.579683	-3.836895	0.000000	0.000000	28.235584	2.215135	6.518667	12.380895	-1.863776	59.081158	30.006397	45.699427	7.820507	23.093853	8.655075	-2.970534	36.176443	41.034744	73.388188	-1.462543	20.599049
